<?xml version="1.0" standalone="no"?>
<!DOCTYPE svg PUBLIC "-//W3C//DTD SVG 20010904//EN"
 "http://www.w3.org/TR/2001/REC-SVG-20010904/DTD/svg10.dtd">
<svg version="1.0" xmlns="http://www.w3.org/2000/svg"
 width="68.000000pt" height="72.000000pt" viewBox="0 0 68.000000 72.000000"
 preserveAspectRatio="xMidYMid meet">

<g transform="translate(0.000000,72.000000) scale(0.100000,-0.100000)"
fill="#000000" stroke="none">
<path d="M280 561 c0 -5 27 -26 60 -46 57 -34 60 -39 60 -75 0 -36 -18 -68
-22 -38 0 7 -2 18 -3 23 -2 6 -3 17 -4 27 -2 24 -87 68 -130 67 -20 0 -30 -3
-23 -6 22 -9 13 -19 -38 -43 -33 -16 -50 -30 -50 -42 0 -24 2 -23 72 14 63 34
99 33 122 -4 15 -24 0 -34 -22 -15 -25 23 -36 21 -91 -8 -45 -25 -80 -70 -58
-78 5 -1 11 -27 11 -57 1 -44 5 -55 19 -58 15 -3 17 5 17 66 0 63 2 71 25 86
29 19 68 21 63 4 -3 -7 -15 -15 -29 -18 -22 -5 -24 -12 -27 -68 -3 -62 11
-108 29 -97 5 4 29 -5 54 -19 50 -29 65 -32 65 -12 0 8 -25 29 -55 46 -52 30
-55 34 -55 70 0 40 14 60 32 42 6 -6 6 -12 0 -16 -23 -14 1 -55 48 -80 54 -29
106 -35 96 -11 -3 8 -2 15 2 15 5 0 30 14 57 31 39 25 46 33 33 40 -10 6 -33
-1 -73 -23 -56 -30 -58 -30 -91 -14 -19 8 -34 22 -34 31 0 19 26 20 34 0 8
-22 32 -19 87 13 52 29 68 54 49 77 -7 8 -9 30 -5 57 6 45 -5 75 -24 64 -6 -4
-11 -36 -11 -77 l0 -69 -35 -17 c-25 -12 -38 -14 -46 -6 -8 8 -3 15 18 25 27
13 28 16 28 90 0 80 -6 98 -27 80 -10 -8 -24 -4 -53 14 -41 24 -75 31 -75 15z
m79 -190 c8 -14 7 -22 -4 -31 -19 -16 -45 -6 -45 18 0 36 33 45 49 13z"/>
</g>
</svg>
